<svg xmlns="http://www.w3.org/2000/svg" xmlns:xlink="http://www.w3.org/1999/xlink" width="500" zoomAndPan="magnify" viewBox="0 0 375 374.999991" height="500" preserveAspectRatio="xMidYMid meet" version="1.0"><path fill="#000000" d="M 186.730469 372.765625 C 164.929688 372.765625 144.125 365.351562 129.4375 352.3125 C 117.347656 341.5625 103.480469 321.851562 106.074219 288.96875 C 108.476562 258.488281 124.472656 223.585938 153.613281 185.226562 C 154.570312 183.96875 156.363281 183.722656 157.625 184.675781 C 158.886719 185.636719 159.128906 187.425781 158.175781 188.683594 C 129.707031 226.15625 114.09375 260.046875 111.785156 289.414062 C 109.875 313.59375 117.300781 333.863281 133.246094 348.035156 C 162.351562 373.898438 214.238281 373.0625 242.097656 346.285156 C 258.082031 330.929688 264.621094 309.125 261.019531 283.242188 C 256.613281 251.628906 237.65625 215.292969 204.652344 175.21875 C 203.652344 173.996094 203.824219 172.195312 205.046875 171.191406 C 206.269531 170.191406 208.074219 170.363281 209.070312 171.585938 C 242.753906 212.484375 262.136719 249.785156 266.691406 282.453125 C 271.574219 317.542969 258.171875 338.773438 246.070312 350.410156 C 231.632812 364.285156 210.519531 372.429688 188.136719 372.757812 C 187.667969 372.765625 187.199219 372.765625 186.730469 372.765625 Z M 186.730469 372.765625 " fill-opacity="1" fill-rule="evenodd"/><path fill="#000000" d="M 186.761719 354.289062 C 170.984375 354.289062 156.050781 349.621094 144.707031 341.15625 C 122.527344 324.585938 121.109375 299.847656 123.832031 282.003906 C 129.75 243.191406 165.625 196.324219 180.773438 177.976562 C 181.78125 176.753906 183.582031 176.582031 184.796875 177.585938 C 186.023438 178.59375 186.191406 180.394531 185.1875 181.617188 C 170.34375 199.597656 135.191406 245.464844 129.488281 282.871094 C 127.007812 299.164062 128.222656 321.703125 148.132812 336.566406 C 158.496094 344.304688 172.214844 348.570312 186.757812 348.570312 C 201.304688 348.570312 215.019531 344.304688 225.382812 336.566406 C 245.289062 321.703125 246.503906 299.164062 244.019531 282.871094 C 238.363281 245.730469 205.679688 202.511719 186.699219 180.058594 C 185.679688 178.84375 185.835938 177.042969 187.042969 176.023438 C 188.25 175.011719 190.054688 175.160156 191.074219 176.367188 C 210.445312 199.285156 243.8125 243.484375 249.679688 282.003906 C 252.402344 299.847656 250.984375 324.585938 228.804688 341.15625 C 217.464844 349.621094 202.527344 354.289062 186.761719 354.289062 Z M 186.761719 354.289062 " fill-opacity="1" fill-rule="evenodd"/><path fill="#000000" d="M 151.378906 164.863281 L 151.386719 164.863281 Z M 213.351562 151.53125 C 212.628906 151.53125 211.898438 151.621094 211.167969 151.816406 L 152.125 167.625 C 149.953125 168.207031 148.132812 169.597656 147 171.5625 C 145.867188 173.523438 145.5625 175.792969 146.144531 177.953125 C 146.726562 180.121094 148.128906 181.9375 150.085938 183.070312 C 152.046875 184.199219 154.328125 184.507812 156.492188 183.925781 L 215.535156 168.117188 C 220.039062 166.917969 222.714844 162.277344 221.515625 157.789062 C 220.5 154.019531 217.078125 151.53125 213.351562 151.53125 Z M 154.308594 189.933594 C 151.847656 189.933594 149.417969 189.289062 147.226562 188.019531 C 143.9375 186.121094 141.597656 183.078125 140.621094 179.433594 C 139.644531 175.792969 140.148438 171.980469 142.042969 168.703125 C 143.9375 165.417969 146.992188 163.074219 150.640625 162.097656 L 209.683594 146.296875 C 217.238281 144.277344 225.019531 148.761719 227.046875 156.304688 C 229.066406 163.847656 224.570312 171.625 217.019531 173.640625 L 157.976562 189.449219 C 156.761719 189.769531 155.53125 189.933594 154.308594 189.933594 Z M 154.308594 189.933594 " fill-opacity="1" fill-rule="evenodd"/><path fill="#000000" d="M 210.324219 151.941406 C 209.058594 151.941406 207.902344 151.101562 207.558594 149.820312 C 207.148438 148.300781 208.058594 146.730469 209.585938 146.320312 L 215.320312 144.785156 C 219.824219 143.578125 222.5 138.949219 221.296875 134.449219 C 220.71875 132.28125 219.316406 130.472656 217.355469 129.339844 C 215.394531 128.210938 213.121094 127.902344 210.949219 128.484375 C 209.414062 128.894531 207.855469 127.984375 207.445312 126.460938 C 207.039062 124.933594 207.9375 123.371094 209.46875 122.960938 C 213.113281 121.984375 216.929688 122.492188 220.21875 124.390625 C 223.503906 126.28125 225.851562 129.328125 226.828125 132.96875 C 228.851562 140.511719 224.355469 148.285156 216.804688 150.3125 L 211.0625 151.84375 C 210.816406 151.910156 210.570312 151.941406 210.324219 151.941406 Z M 154.089844 166.597656 C 151.632812 166.597656 149.199219 165.949219 147.007812 164.683594 C 143.722656 162.792969 141.378906 159.746094 140.402344 156.105469 C 139.429688 152.464844 139.933594 148.652344 141.828125 145.367188 C 143.726562 142.082031 146.777344 139.738281 150.421875 138.761719 L 156.507812 137.136719 C 158.035156 136.730469 159.601562 137.628906 160.011719 139.15625 C 160.421875 140.683594 159.519531 142.253906 157.992188 142.65625 L 151.90625 144.285156 C 149.738281 144.867188 147.917969 146.269531 146.785156 148.226562 C 145.652344 150.183594 145.347656 152.457031 145.929688 154.621094 C 146.511719 156.789062 147.910156 158.597656 149.871094 159.730469 C 151.832031 160.863281 154.105469 161.167969 156.277344 160.585938 C 157.8125 160.179688 159.375 161.085938 159.777344 162.613281 C 160.191406 164.140625 159.289062 165.703125 157.757812 166.113281 C 156.542969 166.441406 155.3125 166.597656 154.089844 166.597656 Z M 154.089844 166.597656 " fill-opacity="1" fill-rule="evenodd"/><path fill="#000000" d="M 151.691406 120.957031 C 147.1875 122.15625 144.511719 126.792969 145.710938 131.285156 C 146.921875 135.78125 151.5625 138.457031 156.058594 137.257812 L 215.101562 121.449219 C 217.273438 120.875 219.089844 119.472656 220.226562 117.507812 C 221.359375 115.550781 221.664062 113.277344 221.082031 111.121094 C 220.5 108.953125 219.097656 107.136719 217.136719 106.003906 C 215.179688 104.871094 212.902344 104.566406 210.734375 105.148438 Z M 153.875 143.257812 C 147.621094 143.257812 141.878906 139.089844 140.1875 132.765625 C 138.160156 125.230469 142.65625 117.449219 150.207031 115.429688 L 209.253906 99.628906 C 212.898438 98.644531 216.714844 99.160156 220 101.050781 C 223.289062 102.949219 225.636719 105.996094 226.613281 109.636719 C 227.589844 113.277344 227.082031 117.089844 225.183594 120.375 C 223.289062 123.652344 220.230469 125.996094 216.585938 126.972656 L 157.542969 142.773438 C 156.320312 143.101562 155.089844 143.257812 153.875 143.257812 Z M 153.875 143.257812 " fill-opacity="1" fill-rule="evenodd"/><path fill="#000000" d="M 167.695312 116.570312 C 166.117188 116.570312 164.839844 115.289062 164.839844 113.710938 L 164.839844 3.871094 C 164.839844 2.292969 166.117188 1.011719 167.695312 1.011719 L 193.238281 1.011719 C 194.820312 1.011719 196.101562 2.292969 196.101562 3.871094 L 196.101562 106.875 C 196.101562 108.453125 194.816406 109.734375 193.238281 109.734375 C 191.660156 109.734375 190.375 108.453125 190.375 106.875 L 190.375 6.730469 L 170.558594 6.730469 L 170.558594 113.710938 C 170.558594 115.289062 169.285156 116.570312 167.695312 116.570312 Z M 167.695312 116.570312 " fill-opacity="1" fill-rule="evenodd"/><path fill="#000000" d="M 193.238281 100.410156 C 192.851562 100.410156 192.453125 100.328125 192.082031 100.164062 C 190.636719 99.523438 189.980469 97.835938 190.621094 96.390625 C 209.699219 53.371094 242.402344 54.167969 243.789062 54.226562 C 247.003906 54.324219 249.710938 51.777344 249.804688 48.550781 C 249.902344 45.320312 247.355469 42.617188 244.125 42.519531 C 243.015625 42.46875 217.199219 41.730469 195.398438 66.828125 C 194.363281 68.015625 192.558594 68.144531 191.367188 67.109375 C 190.167969 66.074219 190.039062 64.265625 191.074219 63.074219 C 214.664062 35.929688 243.125 36.75 244.320312 36.800781 C 250.6875 36.996094 255.726562 42.339844 255.53125 48.722656 C 255.339844 54.984375 250.179688 59.945312 243.953125 59.945312 C 243.835938 59.945312 243.714844 59.945312 243.597656 59.945312 C 242.34375 59.886719 213.375 59.199219 195.855469 98.707031 C 195.386719 99.777344 194.332031 100.410156 193.238281 100.410156 Z M 193.238281 100.410156 " fill-opacity="1" fill-rule="evenodd"/><path fill="#9a6757" d="M 210.964844 151.871094 L 152.125 167.625 C 149.953125 168.207031 148.132812 169.597656 147 171.5625 C 145.867188 173.523438 145.5625 175.792969 146.144531 177.953125 C 146.726562 180.121094 148.128906 181.9375 150.085938 183.070312 C 151.707031 184.003906 153.542969 184.375 155.351562 184.148438 C 155.445312 184.132812 155.539062 184.117188 155.632812 184.109375 C 155.917969 184.0625 156.207031 184.003906 156.492188 183.925781 L 182.222656 177.035156 C 182.234375 177.03125 182.242188 177.03125 182.253906 177.027344 L 215.535156 168.117188 C 220.039062 166.917969 222.714844 162.277344 221.515625 157.789062 C 220.5 154.019531 217.078125 151.53125 213.351562 151.53125 C 212.675781 151.53125 211.992188 151.609375 211.3125 151.777344 L 211.167969 151.816406 L 211.0625 151.84375 C 211.03125 151.855469 210.996094 151.863281 210.964844 151.871094 Z M 210.964844 151.871094 " fill-opacity="1" fill-rule="evenodd"/><path fill="#9a6757" d="M 156.402344 160.558594 L 209.453125 146.359375 C 209.496094 146.34375 209.542969 146.332031 209.585938 146.320312 L 215.320312 144.785156 C 219.824219 143.578125 222.5 138.949219 221.296875 134.449219 C 220.71875 132.28125 219.316406 130.472656 217.355469 129.339844 C 215.394531 128.210938 213.121094 127.902344 210.949219 128.484375 C 210.90625 128.496094 210.863281 128.507812 210.820312 128.515625 L 158.074219 142.632812 C 158.046875 142.640625 158.019531 142.648438 157.992188 142.65625 L 157.542969 142.773438 L 151.90625 144.285156 C 149.738281 144.867188 147.917969 146.269531 146.785156 148.226562 C 145.652344 150.183594 145.347656 152.457031 145.929688 154.621094 C 146.511719 156.789062 147.910156 158.597656 149.871094 159.730469 C 151.832031 160.863281 154.105469 161.167969 156.277344 160.585938 C 156.316406 160.578125 156.359375 160.566406 156.402344 160.558594 Z M 156.402344 160.558594 " fill-opacity="1" fill-rule="evenodd"/><path fill="#9a6757" d="M 156.523438 137.132812 L 209.46875 122.960938 L 215.101562 121.449219 C 217.273438 120.875 219.089844 119.472656 220.226562 117.507812 C 221.359375 115.550781 221.664062 113.277344 221.082031 111.121094 C 220.5 108.953125 219.097656 107.136719 217.136719 106.003906 C 215.179688 104.871094 212.902344 104.566406 210.734375 105.148438 L 194.117188 109.597656 C 194.027344 109.625 193.9375 109.648438 193.839844 109.671875 L 168.53125 116.445312 C 168.472656 116.464844 168.414062 116.480469 168.355469 116.496094 L 151.691406 120.957031 C 147.1875 122.15625 144.511719 126.792969 145.710938 131.285156 C 146.914062 135.757812 151.511719 138.425781 155.980469 137.277344 L 156.058594 137.257812 L 156.507812 137.136719 C 156.511719 137.136719 156.519531 137.132812 156.523438 137.132812 Z M 156.523438 137.132812 " fill-opacity="1" fill-rule="evenodd"/><path fill="#ab7261" d="M 170.558594 109.984375 L 190.375 104.679688 L 190.375 6.730469 L 170.558594 6.730469 Z M 170.558594 109.984375 " fill-opacity="1" fill-rule="evenodd"/><path fill="#9a6757" d="M 196.101562 66.027344 L 196.101562 85.753906 C 215.359375 53.507812 242.527344 54.171875 243.789062 54.226562 C 247.003906 54.324219 249.710938 51.777344 249.804688 48.550781 C 249.902344 45.320312 247.355469 42.617188 244.125 42.519531 C 243.027344 42.46875 217.746094 41.746094 196.101562 66.027344 Z M 196.101562 66.027344 " fill-opacity="1" fill-rule="evenodd"/><path fill="#ab7261" d="M 261.019531 283.242188 C 256.664062 252.003906 238.101562 216.152344 205.816406 176.640625 L 193.960938 179.816406 C 213.585938 203.523438 244.09375 245.335938 249.679688 282.007812 C 252.402344 299.847656 250.984375 324.585938 228.804688 341.15625 C 217.464844 349.621094 202.527344 354.292969 186.757812 354.292969 C 170.984375 354.292969 156.050781 349.625 144.703125 341.15625 C 122.527344 324.585938 121.109375 299.847656 123.832031 282.007812 C 129.113281 247.363281 158.261719 206.300781 175.238281 184.828125 L 157.976562 189.453125 C 157.820312 189.492188 157.664062 189.53125 157.507812 189.566406 C 129.460938 226.6875 114.074219 260.277344 111.78125 289.417969 C 109.875 313.597656 117.300781 333.867188 133.246094 348.035156 C 162.351562 373.898438 214.238281 373.066406 242.097656 346.285156 C 258.082031 330.929688 264.617188 309.128906 261.019531 283.242188 Z M 261.019531 283.242188 " fill-opacity="1" fill-rule="evenodd"/></svg>