<svg xmlns="http://www.w3.org/2000/svg" xmlns:xlink="http://www.w3.org/1999/xlink" width="1000" zoomAndPan="magnify" viewBox="0 0 750 749.999995" height="1000" preserveAspectRatio="xMidYMid meet" version="1.0"><defs><g/><clipPath id="id1"><path d="M 75 297.171875 L 262.5 297.171875 L 262.5 453.171875 L 75 453.171875 Z M 75 297.171875 " clip-rule="nonzero"/></clipPath><clipPath id="id2"><path d="M 153 351 L 191.550781 351 L 191.550781 407.941406 L 153 407.941406 Z M 153 351 " clip-rule="nonzero"/></clipPath><clipPath id="id3"><path d="M 142.226562 307.441406 L 172 307.441406 L 172 332 L 142.226562 332 Z M 142.226562 307.441406 " clip-rule="nonzero"/></clipPath><clipPath id="id4"><path d="M 73.449219 295.644531 L 264.265625 295.644531 L 264.265625 454.355469 L 73.449219 454.355469 Z M 73.449219 295.644531 " clip-rule="nonzero"/></clipPath><clipPath id="id5"><path d="M 101 328.371094 L 152 328.371094 L 152 386 L 101 386 Z M 101 328.371094 " clip-rule="nonzero"/></clipPath><clipPath id="id6"><path d="M 105.695312 321.363281 L 155.828125 328.816406 L 143.554688 411.359375 L 93.417969 403.910156 Z M 105.695312 321.363281 " clip-rule="nonzero"/></clipPath><clipPath id="id7"><path d="M 105.695312 321.363281 L 155.828125 328.816406 L 143.554688 411.359375 L 93.417969 403.910156 Z M 105.695312 321.363281 " clip-rule="nonzero"/></clipPath><clipPath id="id8"><path d="M 118.820312 388 L 141 388 L 141 408.851562 L 118.820312 408.851562 Z M 118.820312 388 " clip-rule="nonzero"/></clipPath><clipPath id="id9"><path d="M 105.695312 321.363281 L 155.828125 328.816406 L 143.554688 411.359375 L 93.417969 403.910156 Z M 105.695312 321.363281 " clip-rule="nonzero"/></clipPath><clipPath id="id10"><path d="M 105.695312 321.363281 L 155.828125 328.816406 L 143.554688 411.359375 L 93.417969 403.910156 Z M 105.695312 321.363281 " clip-rule="nonzero"/></clipPath><clipPath id="id11"><path d="M 218.21875 372.585938 L 236.109375 372.585938 L 236.109375 385.503906 L 218.21875 385.503906 Z M 218.21875 372.585938 " clip-rule="nonzero"/></clipPath><clipPath id="id12"><path d="M 162.480469 349.476562 L 247.519531 365.113281 L 241.046875 400.289062 L 156.007812 384.652344 Z M 162.480469 349.476562 " clip-rule="nonzero"/></clipPath><clipPath id="id13"><path d="M 162.480469 349.476562 L 247.519531 365.113281 L 241.046875 400.289062 L 156.007812 384.652344 Z M 162.480469 349.476562 " clip-rule="nonzero"/></clipPath><clipPath id="id14"><path d="M 162.480469 349.476562 L 247.519531 365.113281 L 241.046875 400.289062 L 156.007812 384.652344 Z M 162.480469 349.476562 " clip-rule="nonzero"/></clipPath><clipPath id="id15"><path d="M 196.351562 366 L 208.777344 366 L 208.777344 382.519531 L 196.351562 382.519531 Z M 196.351562 366 " clip-rule="nonzero"/></clipPath><clipPath id="id16"><path d="M 162.480469 349.476562 L 247.519531 365.113281 L 241.046875 400.289062 L 156.007812 384.652344 Z M 162.480469 349.476562 " clip-rule="nonzero"/></clipPath><clipPath id="id17"><path d="M 162.480469 349.476562 L 247.519531 365.113281 L 241.046875 400.289062 L 156.007812 384.652344 Z M 162.480469 349.476562 " clip-rule="nonzero"/></clipPath><clipPath id="id18"><path d="M 162.480469 349.476562 L 247.519531 365.113281 L 241.046875 400.289062 L 156.007812 384.652344 Z M 162.480469 349.476562 " clip-rule="nonzero"/></clipPath><clipPath id="id19"><path d="M 157.089844 364.140625 L 186.90625 364.140625 L 186.90625 386 L 157.089844 386 Z M 157.089844 364.140625 " clip-rule="nonzero"/></clipPath><clipPath id="id20"><path d="M 162.480469 349.476562 L 247.519531 365.113281 L 241.046875 400.289062 L 156.007812 384.652344 Z M 162.480469 349.476562 " clip-rule="nonzero"/></clipPath><clipPath id="id21"><path d="M 162.480469 349.476562 L 247.519531 365.113281 L 241.046875 400.289062 L 156.007812 384.652344 Z M 162.480469 349.476562 " clip-rule="nonzero"/></clipPath><clipPath id="id22"><path d="M 162.480469 349.476562 L 247.519531 365.113281 L 241.046875 400.289062 L 156.007812 384.652344 Z M 162.480469 349.476562 " clip-rule="nonzero"/></clipPath><clipPath id="id23"><path d="M 185.417969 358.179688 L 198.339844 358.179688 L 198.339844 371.09375 L 185.417969 371.09375 Z M 185.417969 358.179688 " clip-rule="nonzero"/></clipPath><clipPath id="id24"><path d="M 162.480469 349.476562 L 247.519531 365.113281 L 241.046875 400.289062 L 156.007812 384.652344 Z M 162.480469 349.476562 " clip-rule="nonzero"/></clipPath><clipPath id="id25"><path d="M 162.480469 349.476562 L 247.519531 365.113281 L 241.046875 400.289062 L 156.007812 384.652344 Z M 162.480469 349.476562 " clip-rule="nonzero"/></clipPath><clipPath id="id26"><path d="M 162.480469 349.476562 L 247.519531 365.113281 L 241.046875 400.289062 L 156.007812 384.652344 Z M 162.480469 349.476562 " clip-rule="nonzero"/></clipPath><clipPath id="id27"><path d="M 206.289062 378.050781 L 219 378.050781 L 219 390.96875 L 206.289062 390.96875 Z M 206.289062 378.050781 " clip-rule="nonzero"/></clipPath><clipPath id="id28"><path d="M 162.480469 349.476562 L 247.519531 365.113281 L 241.046875 400.289062 L 156.007812 384.652344 Z M 162.480469 349.476562 " clip-rule="nonzero"/></clipPath><clipPath id="id29"><path d="M 162.480469 349.476562 L 247.519531 365.113281 L 241.046875 400.289062 L 156.007812 384.652344 Z M 162.480469 349.476562 " clip-rule="nonzero"/></clipPath><clipPath id="id30"><path d="M 162.480469 349.476562 L 247.519531 365.113281 L 241.046875 400.289062 L 156.007812 384.652344 Z M 162.480469 349.476562 " clip-rule="nonzero"/></clipPath><clipPath id="id31"><path d="M 233.128906 363.644531 L 246.546875 363.644531 L 246.546875 377 L 233.128906 377 Z M 233.128906 363.644531 " clip-rule="nonzero"/></clipPath><clipPath id="id32"><path d="M 162.480469 349.476562 L 247.519531 365.113281 L 241.046875 400.289062 L 156.007812 384.652344 Z M 162.480469 349.476562 " clip-rule="nonzero"/></clipPath><clipPath id="id33"><path d="M 162.480469 349.476562 L 247.519531 365.113281 L 241.046875 400.289062 L 156.007812 384.652344 Z M 162.480469 349.476562 " clip-rule="nonzero"/></clipPath><clipPath id="id34"><path d="M 162.480469 349.476562 L 247.519531 365.113281 L 241.046875 400.289062 L 156.007812 384.652344 Z M 162.480469 349.476562 " clip-rule="nonzero"/></clipPath></defs><g clip-path="url(#id1)"><path fill="#424242" d="M 145.976562 446.023438 C 145.570312 446.023438 145.164062 446.023438 144.761719 446.023438 C 139.664062 445.652344 145.613281 427.203125 145.613281 427.203125 L 262.503906 427.203125 L 250.070312 324.523438 L 74.992188 297.214844 L 85.417969 427.203125 L 114.652344 427.203125 C 111.171875 436.988281 110.757812 445.835938 113.289062 446.945312 C 105.5625 447.59375 101.9375 448.527344 101.9375 449.566406 C 101.9375 451.519531 114.792969 453.105469 143.703125 453.105469 C 172.613281 453.105469 206.628906 451.519531 206.628906 449.566406 C 206.628906 447.609375 174.886719 446.023438 145.976562 446.023438 " fill-opacity="1" fill-rule="nonzero"/></g><g clip-path="url(#id2)"><path fill="#5cdde1" d="M 167.480469 351.867188 L 171.574219 351.867188 L 171.574219 356.335938 C 170.746094 356.726562 170.171875 357.5625 170.171875 358.539062 L 170.171875 365.527344 C 170.171875 366.503906 170.746094 367.34375 171.574219 367.730469 L 171.574219 370.484375 C 165.179688 370.578125 159.03125 371.558594 153.511719 373.324219 L 153.511719 365.871094 C 153.511719 358.136719 159.765625 351.867188 167.480469 351.867188 Z M 173.628906 367.730469 C 174.457031 367.34375 175.03125 366.503906 175.03125 365.527344 L 175.03125 358.539062 C 175.03125 357.5625 174.457031 356.726562 173.628906 356.335938 L 173.628906 351.867188 L 177.722656 351.867188 C 185.4375 351.867188 191.691406 358.136719 191.691406 365.871094 L 191.691406 373.324219 C 186.171875 371.558594 180.023438 370.578125 173.628906 370.484375 Z M 191.691406 375.355469 L 191.691406 388.796875 C 191.691406 399.367188 183.144531 407.933594 172.601562 407.933594 C 162.058594 407.933594 153.511719 399.367188 153.511719 388.796875 L 153.511719 375.355469 C 159.160156 373.480469 165.671875 372.410156 172.601562 372.410156 C 179.53125 372.410156 186.042969 373.480469 191.691406 375.355469 " fill-opacity="1" fill-rule="nonzero"/></g><g clip-path="url(#id3)"><path fill="#5cdde1" d="M 143.285156 307.550781 C 143.914062 307.433594 144.519531 307.847656 144.636719 308.476562 C 144.929688 310.046875 145.980469 311.476562 147.074219 312.789062 C 153.328125 320.285156 161.855469 325.941406 171.179688 328.792969 C 170.96875 329.367188 170.714844 330.109375 170.46875 331.003906 C 160.734375 328.015625 151.828125 322.105469 145.300781 314.277344 C 144.003906 312.722656 142.75 310.996094 142.359375 308.902344 C 142.242188 308.273438 142.660156 307.667969 143.285156 307.550781 " fill-opacity="1" fill-rule="nonzero"/></g><path fill="#5cdde1" d="M 178.078125 329.882812 C 179.828125 329.714844 181.324219 329.003906 182.191406 327.933594 C 183.097656 326.808594 183.246094 325.140625 182.523438 324.136719 C 181.992188 323.390625 181.066406 323.058594 180.101562 323.058594 C 179.261719 323.058594 178.390625 323.3125 177.71875 323.761719 C 175.875 324.988281 174.898438 327.34375 174.324219 329.007812 C 174.257812 329.199219 174.191406 329.390625 174.132812 329.582031 C 175.402344 329.851562 176.753906 330.011719 178.078125 329.882812 Z M 172.226562 327.996094 C 172.921875 326.035156 174.113281 323.378906 176.4375 321.828125 C 178.816406 320.238281 182.585938 320.242188 184.402344 322.78125 C 185.746094 324.652344 185.570312 327.429688 183.988281 329.390625 C 182.71875 330.964844 180.699219 331.960938 178.300781 332.195312 C 176.636719 332.355469 175 332.148438 173.492188 331.816406 C 172.15625 337.207031 172.171875 342.972656 173.570312 348.335938 C 173.730469 348.953125 173.359375 349.589844 172.742188 349.75 C 172.644531 349.777344 172.546875 349.789062 172.449219 349.789062 C 171.933594 349.789062 171.464844 349.441406 171.332031 348.921875 C 170.042969 343.984375 169.921875 338.875 170.710938 333.847656 C 171.015625 331.898438 171.5625 329.855469 172.226562 327.996094 " fill-opacity="1" fill-rule="nonzero"/><g clip-path="url(#id4)"><path fill="#424242" d="M 145.683594 447.082031 C 145.265625 447.082031 144.855469 447.082031 144.445312 447.082031 C 139.257812 446.703125 145.3125 427.933594 145.3125 427.933594 L 264.273438 427.933594 L 251.617188 323.472656 L 73.445312 295.691406 L 84.054688 427.933594 L 113.804688 427.933594 C 110.261719 437.890625 109.839844 446.890625 112.414062 448.019531 C 104.554688 448.679688 100.867188 449.628906 100.867188 450.6875 C 100.867188 452.671875 113.949219 454.285156 143.371094 454.285156 C 172.789062 454.285156 207.40625 452.671875 207.40625 450.6875 C 207.40625 448.695312 175.101562 447.082031 145.683594 447.082031 " fill-opacity="1" fill-rule="nonzero"/></g><g clip-path="url(#id5)"><g clip-path="url(#id6)"><g clip-path="url(#id7)"><path fill="#f0bc68" d="M 106.796875 338.023438 C 114.703125 328.386719 131.308594 325.171875 141.71875 332.335938 C 149.113281 337.433594 153.0625 347.132812 151.3125 355.96875 C 150.410156 360.515625 148.191406 364.683594 145.777344 368.648438 C 144.625 370.550781 143.40625 372.453125 142.78125 374.582031 C 141.949219 377.453125 142.25 380.652344 140.839844 383.292969 C 140.636719 383.683594 140.367188 384.078125 139.992188 384.316406 C 139.621094 384.535156 139.191406 384.617188 138.761719 384.667969 C 133.96875 385.332031 129.148438 385.714844 124.300781 385.835938 C 122.667969 385.867188 121.003906 385.878906 119.460938 385.390625 C 118.828125 385.203125 118.179688 384.894531 117.808594 384.335938 C 117.503906 383.886719 117.425781 383.324219 117.332031 382.777344 C 116.457031 377.484375 114.640625 372.972656 110.238281 369.921875 C 102.816406 364.789062 100.679688 355.375 101.585938 349.503906 C 102.152344 345.796875 104.410156 340.921875 106.796875 338.023438 Z M 106.796875 338.023438 " fill-opacity="1" fill-rule="nonzero"/></g></g></g><g clip-path="url(#id8)"><g clip-path="url(#id9)"><g clip-path="url(#id10)"><path fill="#46cacf" d="M 127.519531 393.292969 C 125.847656 393.367188 120.515625 394.46875 119.289062 393.152344 C 118.121094 391.910156 120.238281 390.589844 121.234375 390.074219 C 123.484375 388.953125 126.300781 389.128906 128.746094 388.957031 C 131.703125 388.734375 134.667969 388.542969 137.613281 388.367188 C 138.757812 388.292969 140.164062 388.386719 140.640625 389.414062 C 141.019531 390.230469 140.546875 391.230469 139.808594 391.75 C 139.070312 392.253906 138.148438 392.394531 137.257812 392.503906 C 134.035156 392.898438 130.773438 393.125 127.519531 393.292969 Z M 120.324219 400.964844 C 120.546875 401.109375 120.820312 401.117188 121.078125 401.109375 C 122.976562 401.050781 124.875 400.863281 126.777344 400.675781 C 130.136719 400.335938 133.511719 399.992188 136.875 399.652344 C 138.25 399.515625 139.960938 399.074219 140.183594 397.699219 C 140.34375 396.734375 139.542969 395.824219 138.621094 395.492188 C 137.703125 395.160156 136.683594 395.285156 135.730469 395.402344 C 132.046875 395.855469 128.34375 396.328125 124.660156 396.78125 C 123.410156 396.9375 121.140625 396.777344 120.105469 397.5625 C 119.210938 398.257812 119.40625 400.308594 120.324219 400.964844 Z M 121.261719 405.410156 C 122.394531 405.820312 123.789062 405.574219 124.976562 405.507812 C 126.539062 405.417969 128.09375 405.289062 129.664062 405.136719 C 131.15625 405 132.628906 404.847656 134.117188 404.710938 C 135.578125 404.574219 137.050781 404.535156 138.414062 403.945312 C 138.796875 403.773438 138.710938 403.242188 138.320312 403.152344 C 136.945312 402.851562 135.554688 403.082031 134.160156 403.230469 C 132.605469 403.386719 131.046875 403.558594 129.488281 403.71875 C 127.996094 403.867188 126.519531 404.039062 125.050781 404.257812 C 123.8125 404.425781 122.324219 404.449219 121.242188 405.113281 C 121.105469 405.160156 121.140625 405.359375 121.261719 405.410156 Z M 126.105469 408.765625 C 127.308594 408.945312 128.613281 408.71875 129.820312 408.558594 C 131.050781 408.402344 132.300781 408.246094 133.464844 407.804688 C 133.753906 407.703125 133.734375 407.195312 133.398438 407.179688 C 132.144531 407.121094 130.914062 407.363281 129.695312 407.535156 C 128.492188 407.710938 127.1875 407.792969 126.039062 408.222656 C 125.785156 408.3125 125.835938 408.726562 126.105469 408.765625 Z M 126.105469 408.765625 " fill-opacity="1" fill-rule="nonzero"/></g></g></g><g clip-path="url(#id11)"><g clip-path="url(#id12)"><g clip-path="url(#id13)"><g clip-path="url(#id14)"><path fill="#00c4cc" d="M 234.460938 372.703125 C 229.269531 375.820312 223.589844 379.273438 218.394531 382.390625 C 218.398438 382.394531 218.398438 382.398438 218.402344 382.402344 C 218.433594 382.472656 218.464844 382.546875 218.488281 382.632812 C 218.519531 382.714844 218.539062 382.796875 218.550781 382.875 C 218.75 383.671875 218.796875 384.496094 218.707031 385.304688 C 224.339844 381.921875 230.460938 378.207031 236.09375 374.824219 C 235.414062 374.230469 234.855469 373.507812 234.460938 372.703125 Z M 234.460938 372.703125 " fill-opacity="1" fill-rule="nonzero"/></g></g></g></g><g clip-path="url(#id15)"><g clip-path="url(#id16)"><g clip-path="url(#id17)"><g clip-path="url(#id18)"><path fill="#00c4cc" d="M 197.921875 366.007812 C 197.675781 366.96875 197.199219 367.847656 196.566406 368.585938 C 199.96875 372.914062 203.707031 377.726562 207.113281 382.054688 C 207.488281 381.207031 208.039062 380.4375 208.746094 379.828125 C 205.25 375.386719 201.417969 370.453125 197.921875 366.007812 Z M 197.921875 366.007812 " fill-opacity="1" fill-rule="nonzero"/></g></g></g></g><g clip-path="url(#id19)"><g clip-path="url(#id20)"><g clip-path="url(#id21)"><g clip-path="url(#id22)"><path fill="#00c4cc" d="M 168.304688 375.132812 C 167.425781 374.167969 166.238281 373.457031 164.796875 373.109375 C 161.300781 372.273438 158.15625 375 157.382812 378.222656 C 156.542969 381.722656 159.269531 384.863281 162.492188 385.632812 C 165.851562 386.441406 168.875 383.957031 169.796875 380.910156 C 169.847656 380.792969 169.886719 380.671875 169.90625 380.523438 C 169.941406 380.382812 169.945312 380.257812 169.941406 380.132812 C 170.015625 379.175781 169.914062 378.261719 169.644531 377.429688 C 175.167969 374.113281 180.9375 370.628906 186.464844 367.3125 C 186.039062 366.484375 185.800781 365.566406 185.796875 364.609375 C 180.046875 368.0625 174.054688 371.679688 168.304688 375.132812 Z M 160.003906 378.703125 C 160.617188 373.960938 167.894531 375.324219 167.285156 380.042969 C 166.171875 384.6875 159.394531 383.441406 160.003906 378.703125 Z M 160.003906 378.703125 " fill-opacity="1" fill-rule="nonzero"/></g></g></g></g><g clip-path="url(#id23)"><g clip-path="url(#id24)"><g clip-path="url(#id25)"><g clip-path="url(#id26)"><path fill="#00c4cc" d="M 198.277344 365.0625 C 198.28125 365.011719 198.28125 364.964844 198.28125 364.914062 C 198.289062 364.847656 198.296875 364.777344 198.296875 364.707031 C 198.28125 361.445312 195.773438 358.691406 192.527344 358.371094 C 189.226562 358.046875 186.351562 360.378906 185.675781 363.554688 C 185.589844 363.964844 185.550781 364.375 185.554688 364.78125 C 185.554688 365.734375 185.796875 366.652344 186.222656 367.480469 C 187.160156 369.308594 188.984375 370.6875 191.089844 371.011719 C 193.28125 371.347656 195.375 370.414062 196.734375 368.828125 C 197.371094 368.09375 197.84375 367.210938 198.089844 366.25 C 198.1875 365.867188 198.253906 365.46875 198.277344 365.0625 Z M 191.570312 368.390625 C 189.367188 368.1875 188.023438 366.132812 188.300781 364.035156 C 188.546875 362.144531 190.351562 361.019531 192.125 360.996094 C 194.203125 360.96875 195.5625 362.910156 195.632812 364.792969 C 195.421875 366.898438 193.8125 368.597656 191.570312 368.390625 Z M 191.570312 368.390625 " fill-opacity="1" fill-rule="nonzero"/></g></g></g></g><g clip-path="url(#id27)"><g clip-path="url(#id28)"><g clip-path="url(#id29)"><g clip-path="url(#id30)"><path fill="#00c4cc" d="M 218.734375 382.464844 C 218.707031 382.382812 218.679688 382.304688 218.644531 382.234375 C 218.640625 382.230469 218.640625 382.226562 218.640625 382.222656 C 217.347656 379.015625 213.90625 377.425781 210.589844 378.46875 C 209.824219 378.707031 209.148438 379.097656 208.578125 379.585938 C 207.867188 380.195312 207.316406 380.960938 206.945312 381.8125 C 206.273438 383.332031 206.167969 385.121094 206.734375 386.726562 C 207.859375 389.914062 211.351562 391.359375 214.484375 390.582031 C 217.089844 389.9375 218.675781 387.625 218.953125 385.136719 C 219.042969 384.328125 218.996094 383.503906 218.796875 382.710938 C 218.78125 382.628906 218.761719 382.546875 218.734375 382.464844 Z M 213.839844 387.996094 C 212.113281 388.628906 210.117188 387.683594 209.34375 386.066406 C 208.449219 384.191406 209.332031 381.941406 211.203125 381.085938 C 213.253906 380.148438 215.5 381.351562 216.226562 383.371094 C 216.800781 385.355469 215.742188 387.292969 213.839844 387.996094 Z M 213.839844 387.996094 " fill-opacity="1" fill-rule="nonzero"/></g></g></g></g><g clip-path="url(#id31)"><g clip-path="url(#id32)"><g clip-path="url(#id33)"><g clip-path="url(#id34)"><path fill="#00c4cc" d="M 246.3125 371.097656 C 246.824219 367.792969 244.507812 364.796875 241.371094 364.019531 C 241.304688 363.996094 241.234375 363.980469 241.15625 363.96875 C 241.082031 363.953125 241.011719 363.945312 240.941406 363.941406 C 237.613281 363.527344 234.683594 365.558594 233.800781 368.800781 C 233.417969 370.214844 233.617188 371.636719 234.21875 372.871094 C 234.609375 373.671875 235.171875 374.398438 235.851562 374.992188 C 236.839844 375.851562 238.082031 376.429688 239.414062 376.5625 C 242.800781 376.894531 245.796875 374.40625 246.3125 371.097656 Z M 239.820312 373.9375 C 237.402344 373.96875 235.96875 371.414062 236.425781 369.28125 C 236.828125 367.375 238.855469 366.308594 240.675781 366.589844 C 242.554688 366.988281 243.882812 368.671875 243.6875 370.617188 C 243.492188 372.632812 241.753906 373.910156 239.820312 373.9375 Z M 239.820312 373.9375 " fill-opacity="1" fill-rule="nonzero"/></g></g></g></g><g fill="#46cacf" fill-opacity="1"><g transform="translate(328.086827, 415.578516)"><g><path d="M 46.777344 0 C 43.144531 -5.484375 39.585938 -11.046875 36.027344 -16.53125 C 41.585938 -18.753906 44.253906 -23.648438 44.253906 -32.46875 C 44.253906 -44.699219 38.769531 -48.925781 26.761719 -48.925781 L 5.558594 -48.925781 L 5.558594 0 L 16.902344 0 L 16.902344 -15.269531 L 24.019531 -15.269531 L 33.804688 0 Z M 16.902344 -24.90625 L 16.902344 -39.289062 L 26.316406 -39.289062 C 31.058594 -39.289062 32.914062 -37.511719 32.914062 -32.46875 C 32.914062 -26.835938 31.058594 -24.90625 26.316406 -24.90625 Z M 16.902344 -24.90625 "/></g></g></g><g fill="#46cacf" fill-opacity="1"><g transform="translate(375.293915, 415.578516)"><g><path d="M 39.660156 0 L 39.660156 -9.636719 L 16.902344 -9.636719 L 16.902344 -19.867188 L 36.695312 -19.867188 L 36.695312 -29.355469 L 16.902344 -29.355469 L 16.902344 -39.289062 L 39.660156 -39.289062 L 39.660156 -48.925781 L 5.558594 -48.925781 L 5.558594 0 Z M 39.660156 0 "/></g></g></g><g fill="#46cacf" fill-opacity="1"><g transform="translate(417.23924, 415.578516)"><g><path d="M 26.761719 0 C 38.695312 0 44.253906 -3.261719 44.253906 -13.492188 C 44.253906 -20.386719 40.84375 -23.574219 33.359375 -24.609375 C 39.808594 -25.722656 42.773438 -28.910156 42.773438 -35.507812 C 42.773438 -45.441406 37.65625 -48.925781 26.761719 -48.925781 L 5.558594 -48.925781 L 5.558594 0 Z M 16.902344 -9.636719 L 16.902344 -19.867188 L 26.316406 -19.867188 C 31.652344 -19.867188 32.914062 -18.011719 32.914062 -14.53125 C 32.914062 -11.417969 32.097656 -9.636719 26.316406 -9.636719 Z M 16.902344 -29.355469 L 16.902344 -39.289062 L 26.316406 -39.289062 C 30.988281 -39.289062 31.429688 -37.730469 31.429688 -35.0625 C 31.429688 -30.765625 29.800781 -29.355469 26.316406 -29.355469 Z M 16.902344 -29.355469 "/></g></g></g><g fill="#46cacf" fill-opacity="1"><g transform="translate(463.408812, 415.578516)"><g><path d="M 39.660156 0 L 39.660156 -9.636719 L 16.902344 -9.636719 L 16.902344 -19.867188 L 36.695312 -19.867188 L 36.695312 -29.355469 L 16.902344 -29.355469 L 16.902344 -39.289062 L 39.660156 -39.289062 L 39.660156 -48.925781 L 5.558594 -48.925781 L 5.558594 0 Z M 39.660156 0 "/></g></g></g><g fill="#46cacf" fill-opacity="1"><g transform="translate(505.35413, 415.578516)"><g><path d="M 44.699219 11.859375 L 36.621094 -0.445312 C 45.21875 -3.261719 49.074219 -10.304688 49.074219 -24.464844 C 49.074219 -43.515625 42.03125 -49.667969 26.019531 -49.667969 C 9.933594 -49.667969 2.964844 -43.515625 2.964844 -24.464844 C 2.964844 -5.558594 9.785156 0.59375 25.5 0.742188 L 32.691406 11.859375 Z M 26.019531 -8.894531 C 17.867188 -8.894531 14.308594 -12.824219 14.308594 -24.464844 C 14.308594 -36.027344 17.867188 -40.03125 26.019531 -40.03125 C 34.101562 -40.03125 37.730469 -36.027344 37.730469 -24.464844 C 37.730469 -12.824219 34.101562 -8.894531 26.019531 -8.894531 Z M 26.019531 -8.894531 "/></g></g></g><g fill="#46cacf" fill-opacity="1"><g transform="translate(555.896136, 415.578516)"><g><path d="M 34.765625 -24.464844 C 34.765625 -12.824219 31.800781 -8.894531 25.277344 -8.894531 C 18.679688 -8.894531 15.789062 -12.824219 15.789062 -24.464844 L 15.789062 -48.925781 L 4.449219 -48.925781 L 4.449219 -24.464844 C 4.449219 -5.410156 10.75 0.742188 25.277344 0.742188 C 39.734375 0.742188 46.109375 -5.410156 46.109375 -24.464844 L 46.109375 -48.925781 L 34.765625 -48.925781 Z M 34.765625 -24.464844 "/></g></g></g><g fill="#46cacf" fill-opacity="1"><g transform="translate(604.95597, 415.578516)"><g><path d="M 39.660156 0 L 39.660156 -9.636719 L 16.902344 -9.636719 L 16.902344 -19.867188 L 36.695312 -19.867188 L 36.695312 -29.355469 L 16.902344 -29.355469 L 16.902344 -39.289062 L 39.660156 -39.289062 L 39.660156 -48.925781 L 5.558594 -48.925781 L 5.558594 0 Z M 39.660156 0 "/></g></g></g><g fill="#46cacf" fill-opacity="1"><g transform="translate(343.465533, 364.00008)"><g><path d="M 6.625 -26.492188 L 0.359375 -26.492188 L 10.917969 0 L 16.496094 0 L 26.972656 -26.492188 L 20.710938 -26.492188 L 15.613281 -12.964844 C 14.128906 -9.03125 13.808594 -6.019531 13.808594 -6.019531 L 13.648438 -6.019531 C 13.648438 -6.019531 13.207031 -9.152344 11.761719 -12.964844 Z M 6.625 -26.492188 "/></g></g></g><g fill="#46cacf" fill-opacity="1"><g transform="translate(370.028042, 364.00008)"><g><path d="M 9.152344 0 L 9.152344 -26.492188 L 3.011719 -26.492188 L 3.011719 0 Z M 9.152344 0 "/></g></g></g><g fill="#46cacf" fill-opacity="1"><g transform="translate(381.423238, 364.00008)"><g><path d="M 19.226562 -11.558594 C 19.226562 -9.511719 19.75 -7.105469 19.75 -7.105469 L 19.589844 -7.105469 C 19.589844 -7.667969 18.824219 -9.511719 17.703125 -11.800781 C 15.332031 -16.699219 12.964844 -21.59375 10.558594 -26.492188 L 3.011719 -26.492188 L 3.011719 0 L 9.152344 0 L 9.152344 -14.933594 C 9.152344 -16.9375 8.589844 -19.386719 8.589844 -19.386719 L 8.75 -19.386719 C 8.75 -19.027344 9.472656 -17.101562 10.636719 -14.691406 L 17.78125 0 L 25.367188 0 L 25.367188 -26.492188 L 19.226562 -26.492188 Z M 19.226562 -11.558594 "/></g></g></g><g fill="#46cacf" fill-opacity="1"><g transform="translate(409.028989, 364.00008)"><g><path d="M 9.152344 0 L 9.152344 -26.492188 L 3.011719 -26.492188 L 3.011719 0 Z M 8.308594 -28.980469 L 13.566406 -34.882812 L 6.0625 -34.882812 L 3.25 -28.980469 Z M 8.308594 -28.980469 "/></g></g></g><g fill="#46cacf" fill-opacity="1"><g transform="translate(420.424186, 364.00008)"><g><path d="M 18.222656 -7.949219 C 18.222656 -4.9375 15.332031 -4.816406 13.488281 -4.816406 C 9.230469 -4.816406 7.746094 -5.460938 7.746094 -13.285156 C 7.746094 -21.195312 9.230469 -21.675781 13.609375 -21.675781 C 15.894531 -21.675781 18.222656 -21.515625 18.222656 -18.542969 L 24.363281 -18.542969 C 24.363281 -25.367188 19.75 -26.894531 13.527344 -26.894531 C 5.257812 -26.894531 1.605469 -24.40625 1.605469 -13.285156 C 1.605469 -2.167969 5.257812 0.402344 13.328125 0.402344 C 19.226562 0.402344 24.363281 -1.082031 24.363281 -7.949219 Z M 18.222656 -7.949219 "/></g></g></g><g fill="#46cacf" fill-opacity="1"><g transform="translate(444.579183, 364.00008)"><g><path d="M 9.152344 0 L 9.152344 -26.492188 L 3.011719 -26.492188 L 3.011719 0 Z M 9.152344 0 "/></g></g></g><g fill="#46cacf" fill-opacity="1"><g transform="translate(455.974385, 364.00008)"><g><path d="M 18.824219 -13.246094 C 18.824219 -6.945312 17.21875 -4.816406 13.6875 -4.816406 C 10.117188 -4.816406 8.550781 -6.945312 8.550781 -13.246094 L 8.550781 -26.492188 L 2.410156 -26.492188 L 2.410156 -13.246094 C 2.410156 -2.929688 5.820312 0.402344 13.6875 0.402344 C 21.515625 0.402344 24.96875 -2.929688 24.96875 -13.246094 L 24.96875 -26.492188 L 18.824219 -26.492188 Z M 18.824219 -13.246094 "/></g></g></g><g fill="#46cacf" fill-opacity="1"><g transform="translate(482.5369, 364.00008)"><g><path d="M 22.921875 -18.542969 C 22.921875 -24.644531 20.230469 -26.894531 12.363281 -26.894531 C 3.574219 -26.894531 1.605469 -24.085938 1.605469 -19.386719 C 1.605469 -12.363281 5.941406 -11.441406 12.28125 -10.4375 C 14.609375 -10.074219 17.300781 -10.355469 17.300781 -7.183594 C 17.300781 -5.417969 16.496094 -4.816406 12.402344 -4.816406 C 7.546875 -4.816406 7.226562 -5.699219 7.226562 -7.949219 L 1.125 -7.949219 C 1.125 -2.128906 3.613281 0.402344 12.28125 0.402344 C 20.550781 0.402344 23.441406 -1.886719 23.441406 -7.304688 C 23.441406 -14.410156 18.503906 -15.171875 12.28125 -16.054688 C 9.792969 -16.417969 7.746094 -16.257812 7.746094 -19.347656 C 7.746094 -21.035156 8.308594 -21.675781 12.242188 -21.675781 C 16.539062 -21.675781 16.820312 -20.871094 16.820312 -18.542969 Z M 22.921875 -18.542969 "/></g></g></g><g fill="#46cacf" fill-opacity="1"><g transform="translate(517.204348, 364.00008)"><g><path d="M 19.226562 -11.558594 C 19.226562 -9.511719 19.75 -7.105469 19.75 -7.105469 L 19.589844 -7.105469 C 19.589844 -7.667969 18.824219 -9.511719 17.703125 -11.800781 C 15.332031 -16.699219 12.964844 -21.59375 10.558594 -26.492188 L 3.011719 -26.492188 L 3.011719 0 L 9.152344 0 L 9.152344 -14.933594 C 9.152344 -16.9375 8.589844 -19.386719 8.589844 -19.386719 L 8.75 -19.386719 C 8.75 -19.027344 9.472656 -17.101562 10.636719 -14.691406 L 17.78125 0 L 25.367188 0 L 25.367188 -26.492188 L 19.226562 -26.492188 Z M 19.226562 -11.558594 "/></g></g></g><g fill="#46cacf" fill-opacity="1"><g transform="translate(544.810106, 364.00008)"><g><path d="M 18.824219 -13.246094 C 18.824219 -6.945312 17.21875 -4.816406 13.6875 -4.816406 C 10.117188 -4.816406 8.550781 -6.945312 8.550781 -13.246094 L 8.550781 -26.492188 L 2.410156 -26.492188 L 2.410156 -13.246094 C 2.410156 -2.929688 5.820312 0.402344 13.6875 0.402344 C 21.515625 0.402344 24.96875 -2.929688 24.96875 -13.246094 L 24.96875 -26.492188 L 18.824219 -26.492188 Z M 18.824219 -13.246094 "/></g></g></g><g fill="#46cacf" fill-opacity="1"><g transform="translate(571.37262, 364.00008)"><g><path d="M 19.226562 -11.558594 C 19.226562 -9.511719 19.75 -7.105469 19.75 -7.105469 L 19.589844 -7.105469 C 19.589844 -7.667969 18.824219 -9.511719 17.703125 -11.800781 C 15.332031 -16.699219 12.964844 -21.59375 10.558594 -26.492188 L 3.011719 -26.492188 L 3.011719 0 L 9.152344 0 L 9.152344 -14.933594 C 9.152344 -16.9375 8.589844 -19.386719 8.589844 -19.386719 L 8.75 -19.386719 C 8.75 -19.027344 9.472656 -17.101562 10.636719 -14.691406 L 17.78125 0 L 25.367188 0 L 25.367188 -26.492188 L 19.226562 -26.492188 Z M 19.226562 -11.558594 "/></g></g></g><g fill="#46cacf" fill-opacity="1"><g transform="translate(598.978377, 364.00008)"><g><path d="M 21.476562 0 L 21.476562 -5.21875 L 9.152344 -5.21875 L 9.152344 -10.757812 L 19.871094 -10.757812 L 19.871094 -15.894531 L 9.152344 -15.894531 L 9.152344 -21.273438 L 21.476562 -21.273438 L 21.476562 -26.492188 L 3.011719 -26.492188 L 3.011719 0 Z M 21.476562 0 "/></g></g></g><g fill="#46cacf" fill-opacity="1"><g transform="translate(621.688879, 364.00008)"><g><path d="M 22.921875 -18.542969 C 22.921875 -24.644531 20.230469 -26.894531 12.363281 -26.894531 C 3.574219 -26.894531 1.605469 -24.085938 1.605469 -19.386719 C 1.605469 -12.363281 5.941406 -11.441406 12.28125 -10.4375 C 14.609375 -10.074219 17.300781 -10.355469 17.300781 -7.183594 C 17.300781 -5.417969 16.496094 -4.816406 12.402344 -4.816406 C 7.546875 -4.816406 7.226562 -5.699219 7.226562 -7.949219 L 1.125 -7.949219 C 1.125 -2.128906 3.613281 0.402344 12.28125 0.402344 C 20.550781 0.402344 23.441406 -1.886719 23.441406 -7.304688 C 23.441406 -14.410156 18.503906 -15.171875 12.28125 -16.054688 C 9.792969 -16.417969 7.746094 -16.257812 7.746094 -19.347656 C 7.746094 -21.035156 8.308594 -21.675781 12.242188 -21.675781 C 16.539062 -21.675781 16.820312 -20.871094 16.820312 -18.542969 Z M 22.921875 -18.542969 "/></g></g></g><g fill="#424242" fill-opacity="1"><g transform="translate(247.998696, 448.40671)"><g><path d="M 14.429688 0 L 8.027344 -12.042969 L 6.824219 -12.042969 L 0.402344 0 L 1.828125 0 L 3.371094 -2.910156 L 11.460938 -2.910156 C 11.980469 -1.945312 12.484375 -0.964844 13.027344 0 Z M 10.835938 -4.113281 L 3.992188 -4.113281 L 7.445312 -10.578125 C 8.570312 -8.429688 9.695312 -6.261719 10.835938 -4.113281 Z M 10.835938 -4.113281 "/></g></g></g><g fill="#424242" fill-opacity="1"><g transform="translate(269.089149, 448.40671)"><g><path d="M 13.546875 0 L 13.546875 -12.042969 L 12.28125 -12.042969 L 12.28125 -1.726562 L 3.089844 -12.042969 L 1.828125 -12.042969 L 1.828125 0 L 3.089844 0 L 3.089844 -10.296875 L 12.28125 0 Z M 13.546875 0 "/></g></g></g><g fill="#424242" fill-opacity="1"><g transform="translate(290.701223, 448.40671)"><g><path d="M 14.429688 0 L 8.027344 -12.042969 L 6.824219 -12.042969 L 0.402344 0 L 1.828125 0 L 3.371094 -2.910156 L 11.460938 -2.910156 C 11.980469 -1.945312 12.484375 -0.964844 13.027344 0 Z M 10.835938 -4.113281 L 3.992188 -4.113281 L 7.445312 -10.578125 C 8.570312 -8.429688 9.695312 -6.261719 10.835938 -4.113281 Z M 10.835938 -4.113281 "/></g></g></g><g fill="#424242" fill-opacity="1"><g transform="translate(311.791676, 448.40671)"><g><path d="M 12.242188 0 L 12.242188 -1.183594 L 3.089844 -1.183594 L 3.089844 -12.042969 L 1.828125 -12.042969 L 1.828125 0 Z M 12.242188 0 "/></g></g></g><g fill="#424242" fill-opacity="1"><g transform="translate(330.715374, 448.40671)"><g><path d="M 7.285156 0 L 7.285156 -4.695312 L 13.1875 -12.042969 L 11.78125 -12.042969 L 6.664062 -5.761719 L 1.523438 -12.042969 L 0.121094 -12.042969 L 6.019531 -4.695312 L 6.019531 0 Z M 7.285156 0 "/></g></g></g><g fill="#424242" fill-opacity="1"><g transform="translate(350.261012, 448.40671)"><g><path d="M 6.945312 0 L 6.945312 -10.859375 L 12.0625 -10.859375 L 12.0625 -12.042969 L 0.402344 -12.042969 L 0.402344 -10.859375 L 5.679688 -10.859375 L 5.679688 0 Z M 6.945312 0 "/></g></g></g><g fill="#424242" fill-opacity="1"><g transform="translate(368.984072, 448.40671)"><g><path d="M 3.089844 0 L 3.089844 -12.042969 L 1.828125 -12.042969 L 1.828125 0 Z M 3.089844 0 "/></g></g></g><g fill="#424242" fill-opacity="1"><g transform="translate(380.163621, 448.40671)"><g><path d="M 12.324219 -1.925781 C 10.917969 -1.304688 9.351562 -0.941406 7.726562 -0.941406 C 4.816406 -0.941406 2.46875 -2.410156 2.46875 -6.019531 C 2.46875 -9.632812 4.835938 -11.097656 7.726562 -11.097656 C 9.351562 -11.097656 10.917969 -10.738281 12.324219 -10.09375 L 12.683594 -11.21875 C 11.179688 -11.902344 9.492188 -12.28125 7.726562 -12.28125 C 4.09375 -12.28125 1.203125 -10.457031 1.203125 -6.019531 C 1.203125 -1.585938 4.09375 0.242188 7.726562 0.242188 C 9.492188 0.242188 11.179688 -0.140625 12.683594 -0.824219 Z M 12.324219 -1.925781 "/></g></g></g><g fill="#424242" fill-opacity="1"><g transform="translate(399.869751, 448.40671)"><g><path d="M 0.921875 -0.824219 C 2.449219 -0.140625 4.515625 0.242188 6.300781 0.242188 C 9.011719 0.242188 12 -0.703125 12 -3.230469 C 12 -5.578125 9.472656 -6.101562 6.242188 -6.601562 C 4.074219 -6.945312 2.246094 -7.207031 2.246094 -8.789062 C 2.246094 -10.457031 4.253906 -11.078125 6.402344 -11.078125 C 8.109375 -11.078125 9.695312 -10.738281 11.097656 -10.09375 C 11.257812 -10.457031 11.378906 -10.835938 11.539062 -11.21875 C 9.996094 -11.902344 8.269531 -12.28125 6.441406 -12.28125 C 3.652344 -12.28125 0.984375 -11.28125 0.984375 -8.75 C 0.984375 -4.15625 10.738281 -6.484375 10.738281 -3.171875 C 10.738281 -1.546875 8.550781 -0.902344 6.363281 -0.902344 C 4.535156 -0.902344 2.769531 -1.285156 1.265625 -1.925781 Z M 0.921875 -0.824219 "/></g></g></g><g fill="#424242" fill-opacity="1"><g transform="translate(419.194702, 448.40671)"><g/></g></g><g fill="#424242" fill-opacity="1"><g transform="translate(431.056365, 448.40671)"><g><path d="M 3.191406 2.410156 L 3.191406 -14.449219 L 2.066406 -14.449219 L 2.066406 2.410156 Z M 3.191406 2.410156 "/></g></g></g><g fill="#424242" fill-opacity="1"><g transform="translate(442.556898, 448.40671)"><g/></g></g><g fill="#424242" fill-opacity="1"><g transform="translate(454.418562, 448.40671)"><g><path d="M 6.945312 0 L 6.945312 -10.859375 L 12.0625 -10.859375 L 12.0625 -12.042969 L 0.402344 -12.042969 L 0.402344 -10.859375 L 5.679688 -10.859375 L 5.679688 0 Z M 6.945312 0 "/></g></g></g><g fill="#424242" fill-opacity="1"><g transform="translate(473.141621, 448.40671)"><g><path d="M 12.242188 0 L 12.242188 -1.183594 L 3.089844 -1.183594 L 3.089844 -5.417969 L 11.257812 -5.417969 L 11.257812 -6.625 L 3.089844 -6.625 L 3.089844 -10.859375 L 12.242188 -10.859375 L 12.242188 -12.042969 L 1.828125 -12.042969 L 1.828125 0 Z M 12.242188 0 "/></g></g></g><g fill="#424242" fill-opacity="1"><g transform="translate(492.767505, 448.40671)"><g><path d="M 12.324219 -1.925781 C 10.917969 -1.304688 9.351562 -0.941406 7.726562 -0.941406 C 4.816406 -0.941406 2.46875 -2.410156 2.46875 -6.019531 C 2.46875 -9.632812 4.835938 -11.097656 7.726562 -11.097656 C 9.351562 -11.097656 10.917969 -10.738281 12.324219 -10.09375 L 12.683594 -11.21875 C 11.179688 -11.902344 9.492188 -12.28125 7.726562 -12.28125 C 4.09375 -12.28125 1.203125 -10.457031 1.203125 -6.019531 C 1.203125 -1.585938 4.09375 0.242188 7.726562 0.242188 C 9.492188 0.242188 11.179688 -0.140625 12.683594 -0.824219 Z M 12.324219 -1.925781 "/></g></g></g><g fill="#424242" fill-opacity="1"><g transform="translate(512.473635, 448.40671)"><g><path d="M 13.910156 0 L 13.910156 -12.042969 L 12.644531 -12.042969 L 12.644531 -6.625 L 3.089844 -6.625 L 3.089844 -12.042969 L 1.828125 -12.042969 L 1.828125 0 L 3.089844 0 L 3.089844 -5.417969 L 12.644531 -5.417969 L 12.644531 0 Z M 13.910156 0 "/></g></g></g><g fill="#424242" fill-opacity="1"><g transform="translate(534.44684, 448.40671)"><g/></g></g><g fill="#424242" fill-opacity="1"><g transform="translate(546.308503, 448.40671)"><g><path d="M 11.257812 -5.417969 L 11.257812 -6.625 L 3.089844 -6.625 L 3.089844 -10.859375 L 12.242188 -10.859375 L 12.242188 -12.042969 L 1.828125 -12.042969 L 1.828125 0 L 3.089844 0 L 3.089844 -5.417969 Z M 11.257812 -5.417969 "/></g></g></g><g fill="#424242" fill-opacity="1"><g transform="translate(565.392693, 448.40671)"><g><path d="M 14.25 -6.019531 C 14.25 -10.457031 11.359375 -12.28125 7.726562 -12.28125 C 4.09375 -12.28125 1.203125 -10.457031 1.203125 -6.019531 C 1.203125 -1.585938 4.09375 0.242188 7.726562 0.242188 C 11.359375 0.242188 14.25 -1.585938 14.25 -6.019531 Z M 12.984375 -6.019531 C 12.984375 -2.410156 10.636719 -0.941406 7.726562 -0.941406 C 4.816406 -0.941406 2.46875 -2.410156 2.46875 -6.019531 C 2.46875 -9.632812 4.835938 -11.097656 7.726562 -11.097656 C 10.617188 -11.097656 12.984375 -9.632812 12.984375 -6.019531 Z M 12.984375 -6.019531 "/></g></g></g><g fill="#424242" fill-opacity="1"><g transform="translate(587.085013, 448.40671)"><g><path d="M 13.144531 0 L 9.914062 -4.234375 C 11.820312 -4.433594 13.246094 -5.679688 13.246094 -8.128906 C 13.246094 -10.878906 11.417969 -12.042969 9.089844 -12.042969 L 1.804688 -12.042969 L 1.804688 0 L 3.070312 0 L 3.070312 -4.214844 L 8.371094 -4.214844 L 11.601562 0 Z M 9.089844 -10.859375 C 10.675781 -10.859375 11.980469 -10.054688 11.980469 -8.128906 C 11.980469 -6.179688 10.675781 -5.398438 9.089844 -5.398438 L 3.070312 -5.398438 L 3.070312 -10.859375 Z M 9.089844 -10.859375 "/></g></g></g><g fill="#424242" fill-opacity="1"><g transform="translate(607.914656, 448.40671)"><g/></g></g><g fill="#424242" fill-opacity="1"><g transform="translate(619.776319, 448.40671)"><g><path d="M 9.953125 0 C 12.0625 0 13.746094 -0.921875 13.746094 -3.152344 C 13.746094 -4.878906 12.703125 -5.800781 11.300781 -6.042969 C 12.582031 -6.363281 13.507812 -7.324219 13.507812 -8.953125 C 13.507812 -11.179688 11.742188 -12.042969 9.714844 -12.042969 L 1.828125 -12.042969 L 1.828125 0 Z M 9.953125 -5.417969 C 11.339844 -5.417969 12.484375 -4.738281 12.484375 -3.230469 C 12.484375 -1.707031 11.359375 -1.183594 9.953125 -1.183594 L 3.089844 -1.183594 L 3.089844 -5.417969 Z M 9.714844 -10.859375 C 11.078125 -10.859375 12.242188 -10.335938 12.242188 -8.832031 C 12.242188 -7.324219 11.097656 -6.625 9.714844 -6.625 L 3.089844 -6.625 L 3.089844 -10.859375 Z M 9.714844 -10.859375 "/></g></g></g><g fill="#424242" fill-opacity="1"><g transform="translate(640.866749, 448.40671)"><g><path d="M 3.089844 0 L 3.089844 -12.042969 L 1.828125 -12.042969 L 1.828125 0 Z M 3.089844 0 "/></g></g></g></svg>